<svg id="Layer_1" data-name="Layer 1" xmlns="http://www.w3.org/2000/svg" viewBox="0 0 132.27 100"><defs><style>.cls-1{isolation:isolate;}.cls-2{fill:#fff;}.cls-3{fill:#3c867b;}</style></defs><g id="ANTALya" class="cls-1"><g class="cls-1"><path class="cls-2" d="M0,49.27l4.32-5.62A22.55,22.55,0,0,0,9.62,47a13.3,13.3,0,0,0,5.18,1A8.88,8.88,0,0,0,19,47.2,2.47,2.47,0,0,0,20.46,45a2.34,2.34,0,0,0-1-2,8.5,8.5,0,0,0-3.35-1.12L9.17,40.59a10.13,10.13,0,0,1-5.89-2.92A8.1,8.1,0,0,1,1.21,32a8.55,8.55,0,0,1,3.45-7.18q3.44-2.62,9.46-2.63a22,22,0,0,1,7.09,1.22,19.87,19.87,0,0,1,6.14,3.28l-4.1,5.71a18.87,18.87,0,0,0-4.83-2.83,13.52,13.52,0,0,0-4.84-.9,7.9,7.9,0,0,0-3.71.74,2.25,2.25,0,0,0-1.37,2,2.12,2.12,0,0,0,.88,1.82,6.55,6.55,0,0,0,2.85,1l6.52,1.08a12.48,12.48,0,0,1,6.91,3A7.93,7.93,0,0,1,28,44.19a9,9,0,0,1-3.71,7.56q-3.7,2.79-10.1,2.79a21.47,21.47,0,0,1-7.53-1.4A22.15,22.15,0,0,1,0,49.27Z"/><path class="cls-2" d="M31.57,54.09V22.6h7.74V54.09Zm3.87-34.77a3.73,3.73,0,0,1-2.72-1.08,3.69,3.69,0,0,1,0-5.24,4.07,4.07,0,0,1,5.48,0,3.69,3.69,0,0,1,0,5.24A3.73,3.73,0,0,1,35.44,19.32Z"/><path class="cls-2" d="M54.33,54.09,41.6,22.6H50l9,23.43L68.05,22.6h8L63.19,54.09Z"/><path class="cls-2" d="M69.17,54.09,82.08,22.6h8.86l12.73,31.49H95.3l-2.87-7.61H80.15l-2.93,7.61ZM82.49,40.32h7.64L86.35,30.25Z"/><path class="cls-2" d="M104.25,49.27l4.32-5.62A22.39,22.39,0,0,0,113.88,47a13.25,13.25,0,0,0,5.17,1,8.85,8.85,0,0,0,4.16-.81A2.48,2.48,0,0,0,124.72,45a2.36,2.36,0,0,0-1-2,8.62,8.62,0,0,0-3.36-1.12l-6.92-1.22a10.1,10.1,0,0,1-5.89-2.92A8.1,8.1,0,0,1,105.47,32a8.55,8.55,0,0,1,3.44-7.18q3.44-2.62,9.47-2.63a21.93,21.93,0,0,1,7.08,1.22,19.87,19.87,0,0,1,6.14,3.28l-4.09,5.71a18.75,18.75,0,0,0-4.84-2.83,13.46,13.46,0,0,0-4.83-.9,7.88,7.88,0,0,0-3.71.74,2.24,2.24,0,0,0-1.38,2,2.15,2.15,0,0,0,.88,1.82,6.65,6.65,0,0,0,2.86,1L123,35.24a12.41,12.41,0,0,1,6.9,3,7.89,7.89,0,0,1,2.36,5.94,8.94,8.94,0,0,1-3.71,7.56q-3.7,2.79-10.09,2.79a21.56,21.56,0,0,1-7.54-1.4A22.27,22.27,0,0,1,104.25,49.27Z"/></g></g><g id="GoTurkey" class="cls-1"><g class="cls-1"><path class="cls-3" d="M19.21,73.2a10.05,10.05,0,0,1-.7,3.81,9.2,9.2,0,0,1-1.93,3,8.82,8.82,0,0,1-2.93,2,9.41,9.41,0,0,1-3.69.72A10.17,10.17,0,0,1,6.12,82,9.73,9.73,0,0,1,3,80,9.33,9.33,0,0,1,1,69.61a9.19,9.19,0,0,1,2.06-3,9.48,9.48,0,0,1,3.07-2,10,10,0,0,1,3.8-.73,10.09,10.09,0,0,1,4.38,1,9.21,9.21,0,0,1,3.36,2.6l-3.15,2.84a6.15,6.15,0,0,0-2.06-1.7A5.57,5.57,0,0,0,9.88,68a5.11,5.11,0,0,0-2,.4,4.78,4.78,0,0,0-1.6,1.11,5.32,5.32,0,0,0-1,1.68,5.42,5.42,0,0,0-.4,2.1,5.54,5.54,0,0,0,1.5,3.82A5,5,0,0,0,8,78.25a5.28,5.28,0,0,0,2.08.4,4.82,4.82,0,0,0,2.75-.79,3.77,3.77,0,0,0,1.58-2.08H9.44V71.9h9.77Z"/><path class="cls-3" d="M20.75,75.55a6.83,6.83,0,0,1,.59-2.8,7.09,7.09,0,0,1,1.59-2.28,7.56,7.56,0,0,1,2.37-1.53,7.72,7.72,0,0,1,8.23,1.53,7.09,7.09,0,0,1,1.59,2.28,6.94,6.94,0,0,1,0,5.6,7.09,7.09,0,0,1-1.59,2.28,7.28,7.28,0,0,1-2.37,1.51,8.08,8.08,0,0,1-5.86,0,7.17,7.17,0,0,1-2.37-1.51,7.09,7.09,0,0,1-1.59-2.28A6.83,6.83,0,0,1,20.75,75.55ZM28.23,79a3.19,3.19,0,0,0,2.38-1,3.65,3.65,0,0,0,0-5,3.16,3.16,0,0,0-2.38-1,3.2,3.2,0,0,0-2.39,1,3.68,3.68,0,0,0,0,5A3.23,3.23,0,0,0,28.23,79Z"/><path class="cls-3" d="M36.85,68.15v-4H53.27v4h-6V82.43H42.82V68.15Z"/><path class="cls-3" d="M58.12,68.64v7.93a2.37,2.37,0,0,0,2.5,2.5,3.41,3.41,0,0,0,1.43-.29,2.69,2.69,0,0,0,1-.81V68.64h4.22V82.43H63.09v-.94a5.86,5.86,0,0,1-1.7.89,6.34,6.34,0,0,1-2,.31,5.33,5.33,0,0,1-4-1.56,5.48,5.48,0,0,1-1.54-4v-8.5Zm-.53-1.9A2.17,2.17,0,0,1,56,66.12a2,2,0,0,1-.64-1.51A2.05,2.05,0,0,1,56,63.08a2.36,2.36,0,0,1,3.17,0,2.05,2.05,0,0,1,.63,1.53,2,2,0,0,1-.64,1.51A2.18,2.18,0,0,1,57.59,66.74Zm6.15,0a2.17,2.17,0,0,1-1.57-.62,2,2,0,0,1-.64-1.51,2.05,2.05,0,0,1,.63-1.53,2.36,2.36,0,0,1,3.17,0A2.05,2.05,0,0,1,66,64.61a2,2,0,0,1-.64,1.51A2.18,2.18,0,0,1,63.74,66.74Z"/><path class="cls-3" d="M69.92,82.43V68.64h4.22V70a4.83,4.83,0,0,1,1.59-1.26,4.65,4.65,0,0,1,2-.44,9.25,9.25,0,0,1,1,.09,1.65,1.65,0,0,1,.62.25v3.67a4.72,4.72,0,0,0-.94-.29,4.66,4.66,0,0,0-1.06-.12,3.63,3.63,0,0,0-1.84.47,3.8,3.8,0,0,0-1.37,1.27v8.76Z"/><path class="cls-3" d="M81.18,82.43V64.19l4.22-.91v11l5.5-5.63h4.71l-6.12,6.23L96,82.43H90.69L85.4,76.25v6.18Z"/><path class="cls-3" d="M98.84,67.37a2.32,2.32,0,1,1,1.64-4,2.32,2.32,0,0,1,0,3.28A2.24,2.24,0,0,1,98.84,67.37ZM101,68.64V82.43H96.73V68.64Z"/><path class="cls-3" d="M107.49,82.64v0l-5.29-14h4.67l3,8.68,3.54-8.68H118l-6.18,14.49a9.11,9.11,0,0,1-2.65,3.81,6.6,6.6,0,0,1-4,1.12c-.33,0-.65,0-1,0a5.81,5.81,0,0,1-.79-.12V84.3a4,4,0,0,0,.59.08q.3,0,.72,0a3.15,3.15,0,0,0,1.69-.44A2.6,2.6,0,0,0,107.49,82.64Z"/><path class="cls-3" d="M131.39,80.6a8.89,8.89,0,0,1-2.67,1.59,9.06,9.06,0,0,1-3.09.5,7.89,7.89,0,0,1-2.95-.55,7.22,7.22,0,0,1-2.38-1.51,7.09,7.09,0,0,1-1.59-2.28,6.83,6.83,0,0,1-.59-2.8,7.14,7.14,0,0,1,.56-2.8,7.25,7.25,0,0,1,1.53-2.28A6.88,6.88,0,0,1,122.49,69a7.21,7.21,0,0,1,2.83-.55,6.74,6.74,0,0,1,2.78.57,6.89,6.89,0,0,1,2.21,1.57,7,7,0,0,1,1.44,2.38,8.46,8.46,0,0,1,.52,3v1h-9.82a3.63,3.63,0,0,0,1.3,1.58,3.57,3.57,0,0,0,2.09.61,4.33,4.33,0,0,0,1.56-.27,3.39,3.39,0,0,0,1.2-.77Zm-6.15-8.75a2.89,2.89,0,0,0-1.8.57A3.08,3.08,0,0,0,122.37,74h5.76A3.31,3.31,0,0,0,127,72.45,2.79,2.79,0,0,0,125.24,71.85Z"/></g></g></svg>